<svg width="343" height="51" viewBox="0 0 343 51" fill="none" xmlns="http://www.w3.org/2000/svg">
<path d="M25.3735 42.0782C23.0565 46.6132 17.566 48.3145 13.1099 45.8782C8.65382 43.4418 6.9197 37.7904 9.23662 33.2554C11.5535 28.7204 16.1449 29.221 23.0599 26.4025C24.8567 34.1862 27.6904 37.5432 25.3735 42.0782Z" fill="#9C9896"/>
<path d="M39.3195 23.1904C43.7033 25.5872 45.3478 31.2672 42.9927 35.877C40.6376 40.4867 35.1746 42.2807 30.7908 39.8838C26.407 37.487 26.891 32.7372 24.1664 25.5837C31.6906 23.7249 34.9356 20.7935 39.3195 23.1904Z" fill="#79C2EC"/>
<path d="M7.93756 27.3887C3.55376 24.9919 1.90918 19.3119 4.26429 14.7021C6.6194 10.0924 12.0824 8.29844 16.4662 10.6953C20.85 13.0921 20.366 17.8419 23.0906 24.9954C15.5664 26.8542 12.3214 29.7856 7.93756 27.3887Z" fill="#9079EC"/>
<path d="M21.8836 8.50089C24.2005 3.96588 29.6911 2.26457 34.1471 4.70092C38.6032 7.13726 40.3373 12.7887 38.0204 17.3237C35.7035 21.8587 31.1121 21.3581 24.1971 24.1766C22.4003 16.3929 19.5666 13.0359 21.8836 8.50089Z" fill="#F57A3D"/>
<path d="M50.3387 46.0054C54.9938 46.3931 59.6781 46.1269 64.3357 45.9652C68.9933 45.8035 73.651 45.6156 78.3088 45.4277C87.4151 45.0249 96.4955 44.5434 105.603 43.9574C123.948 42.786 142.243 41.1435 160.564 39.4226C178.781 37.7012 196.973 35.6919 215.063 33.0281C233.154 30.3643 250.748 27.3843 268.501 24.1433C278.582 22.306 288.664 20.3379 298.693 18.2649C303.59 17.241 308.514 16.2171 313.411 15.1408C318.308 14.0646 323.624 13.0164 328.55 11.3123C331.957 10.1245 330.565 5.51359 327.11 5.99477C322.554 6.65403 318.128 7.81097 313.649 8.88918C309.17 9.96738 304.718 11.0196 300.239 12.0454C291.492 14.0458 282.719 15.9677 273.92 17.8108C256.165 21.5227 238.307 24.7631 220.399 27.6371C202.491 30.511 184.452 33.2536 166.416 35.6821C148.222 38.1362 129.9 39.9356 111.605 41.4473C101.372 42.2897 91.1131 43.0274 80.8546 43.6604C75.7777 43.9772 70.6749 44.2415 65.5982 44.5059C60.5215 44.7703 55.3412 44.7988 50.2623 45.5603C49.9743 45.6113 50.077 46.0304 50.3385 46.0578L50.3387 46.0054Z" fill="url(#paint0_linear_9178_794)"/>
<path d="M336.971 10.1717C339.773 10.1846 342.055 7.92325 342.068 5.12086C342.081 2.31848 339.82 0.0362358 337.017 0.0233435C334.215 0.0104513 331.933 2.27179 331.92 5.07418C331.907 7.87657 334.168 10.1588 336.971 10.1717Z" fill="#03131C"/>
<path d="M82.6448 38.2693H66.8527L62.7434 47.2286H56.7466L74.9996 8.02292L92.6075 47.2286H86.5152L82.6448 38.2693ZM80.3752 33.0371L74.904 20.4942L69.1701 33.0371H80.3752Z" fill="#03131C"/>
<path d="M98.8823 10.3404L109.084 35.9041L119.429 10.3404H125.521L108.964 50L92.79 10.3404H98.8823Z" fill="#03131C"/>
<path d="M145.318 31.5081L156.738 47.2286H149.929L139.393 32.1293H138.39V47.2286H132.823V10.3404H139.346C144.219 10.3404 147.739 11.2562 149.906 13.0879C152.295 15.1266 153.489 17.8184 153.489 21.1631C153.489 23.7753 152.741 26.021 151.243 27.9005C149.746 29.7799 147.771 30.9825 145.318 31.5081ZM138.39 27.2793H140.158C145.43 27.2793 148.066 25.2645 148.066 21.2348C148.066 17.46 145.502 15.5726 140.373 15.5726H138.39V27.2793Z" fill="#03131C"/>
<path d="M162.297 28.6172C162.297 23.4249 164.2 18.9651 168.007 15.2381C171.797 11.511 176.353 9.64753 181.672 9.64753C186.929 9.64753 191.436 11.527 195.195 15.2859C198.97 19.0448 200.857 23.5602 200.857 28.8323C200.857 34.1361 198.962 38.6357 195.171 42.3308C191.364 46.042 186.769 47.8975 181.386 47.8975C176.623 47.8975 172.347 46.249 168.556 42.952C164.383 39.3046 162.297 34.5264 162.297 28.6172ZM167.911 28.6889C167.911 32.7664 169.281 36.1191 172.02 38.7471C174.744 41.3752 177.89 42.6892 181.457 42.6892C185.328 42.6892 188.593 41.3513 191.253 38.6755C193.913 35.9678 195.243 32.6708 195.243 28.7845C195.243 24.8504 193.929 21.5534 191.301 18.8935C188.689 16.2176 185.455 14.8797 181.601 14.8797C177.762 14.8797 174.521 16.2176 171.877 18.8935C169.233 21.5374 167.911 24.8026 167.911 28.6889Z" fill="#03131C"/>
<path d="M210.548 47.2286V7.83179L237.45 35.9758V10.3404H243.017V49.4743L216.115 21.4021V47.2286H210.548Z" fill="#03131C"/>
<path d="M254.572 47.2286V7.83179L281.473 35.9758V10.3404H287.04V49.4743L260.138 21.4021V47.2286H254.572Z" fill="#03131C"/>
<path d="M320.551 38.2693H304.759L300.649 47.2286H294.653L312.905 8.02292L330.513 47.2286H324.421L320.551 38.2693ZM318.281 33.0371L312.81 20.4942L307.076 33.0371H318.281Z" fill="#03131C"/>
<defs>
<linearGradient id="paint0_linear_9178_794" x1="190.4" y1="5.32846" x2="190.209" y2="46.8256" gradientUnits="userSpaceOnUse">
<stop offset="0.225" stop-color="#F57A3D"/>
<stop offset="1" stop-color="#F57A3D" stop-opacity="0.05"/>
</linearGradient>
</defs>
</svg>
